<?xml version="1.0" encoding="utf-8"?>
<!-- Generator: Adobe Illustrator 24.3.0, SVG Export Plug-In . SVG Version: 6.00 Build 0)  -->
<svg version="1.1" id="Layer_1" xmlns="http://www.w3.org/2000/svg" xmlns:xlink="http://www.w3.org/1999/xlink" x="0px" y="0px"
	 viewBox="0 0 799.9 799.9" style="enable-background:new 0 0 799.9 799.9;" xml:space="preserve">
<g transform="translate(0 -1)">
	<g>
		<g>
			<path d="M212.8,149.2L212.8,149.2c-18.3,0-35.5,7.1-48.5,20c-13.1,12.9-20.3,30-20.3,48.3c0,18.6,7.3,36.1,20.6,49.1
				c12.9,12.6,30.5,19.7,47.5,19.3c0.5,0,1,0,1.5,0c17.1,0,34-7,46.6-19.3c13.3-12.9,20.6-30.3,20.7-48.9c0-18.2-7.1-35.4-20-48.4
				C248,156.4,230.9,149.2,212.8,149.2z"/>
			<path d="M246.4,302.9h-69c-13.7,0-24.9,11.5-24.9,25.7v298.6c0,13.8,11.7,25.5,25.6,25.5h68.3c13.9,0,25.6-11.5,25.6-25V328.5
				C272,314.7,260.3,302.9,246.4,302.9z"/>
			<path d="M537.6,294.4h-18c-33.1,0-64.9,14.1-85.5,37.4V320c0-8.5-8.6-17.1-17.1-17.1h-85.3c-7.9,0-17.1,7-17.1,16v318.4
				c0,9.1,9,15.4,17.1,15.4h93.9c8.1,0,17.1-6.3,17.1-15.4v-184c0-27.8,20.6-49.7,46.8-50c13.4-0.3,26,5,35.4,14.4
				c7.8,7.8,11.6,19.2,11.6,34.9v183c0,8.5,8.6,17.1,17.1,17.1h85.3c8.4,0,17.1-8.6,17.1-17.1V415.5
				C656,347.6,604,294.4,537.6,294.4z"/>
		</g>
	</g>
</g>
</svg>
