<?xml version="1.0" encoding="utf-8"?>
<!-- Generator: Adobe Illustrator 24.3.0, SVG Export Plug-In . SVG Version: 6.00 Build 0)  -->
<svg version="1.1" id="Layer_1" xmlns="http://www.w3.org/2000/svg" xmlns:xlink="http://www.w3.org/1999/xlink" x="0px" y="0px"
	 viewBox="0 0 750.2 500" style="enable-background:new 0 0 750.2 500;" xml:space="preserve">
<style type="text/css">
	.st0{fill:#032B66;}
	.st1{opacity:0.8;fill:#FFFFFF;enable-background:new    ;}
	.st2{fill:#FFFFFF;}
	.st3{fill:#FFFFFF;stroke:#263238;stroke-linecap:round;stroke-linejoin:round;}
	.st4{stroke:#263238;stroke-linecap:round;stroke-linejoin:round;}
	.st5{fill:none;stroke:#263238;stroke-width:4;stroke-miterlimit:10;}
	.st6{fill:#FFFFFF;stroke:#263238;stroke-width:4;stroke-miterlimit:10;}
</style>
<g>
	<g id="freepik--background-simple--inject-148">
		<path class="st0" d="M382.9,60.6c0,0,53.4,21.6,97.8,21.6s44.5-28,92.8-31.8C621.7,46.6,651,105,657.3,180
			c6.3,75-16.5,177.9-102.9,228.7s-230,85.1-330.4,29.2S67.7,275.3,102,166s136-137.2,180.4-132.1S382.9,60.6,382.9,60.6z"/>
		<path class="st1" d="M382.9,60.6c0,0,53.4,21.6,97.8,21.6s44.5-28,92.8-31.8C621.7,46.6,651,105,657.3,180
			c6.3,75-16.5,177.9-102.9,228.7s-230,85.1-330.4,29.2S67.7,275.3,102,166s136-137.2,180.4-132.1S382.9,60.6,382.9,60.6z"/>
	</g>
	<g id="freepik--Graphics--inject-148">
		<rect x="142.4" y="96.1" class="st2" width="28" height="28"/>
		<rect x="180.8" y="96.1" class="st2" width="28" height="28"/>
		<rect x="142.4" y="135.9" class="st2" width="28" height="28"/>
		<rect x="180.8" y="135.9" class="st2" width="28" height="28"/>
		<rect x="142.4" y="175.7" class="st2" width="28" height="28"/>
		<rect x="180.8" y="175.7" class="st2" width="28" height="28"/>
		<rect x="142.4" y="215.6" class="st2" width="28" height="28"/>
		<rect x="180.8" y="215.6" class="st2" width="28" height="28"/>
		<rect x="142.4" y="255.4" class="st2" width="28" height="28"/>
		<rect x="180.8" y="255.4" class="st2" width="28" height="28"/>
		<rect x="142.4" y="295.2" class="st2" width="28" height="28"/>
		<rect x="180.8" y="295.2" class="st2" width="28" height="28"/>
		<rect x="142.4" y="335" class="st2" width="28" height="28"/>
		<rect x="180.8" y="335" class="st2" width="28" height="28"/>
		<path class="st2" d="M502.6,113.8v79.4h112.4v-79.4H502.6z M610.6,188.8H507.1v-70.5h103.6V188.8z"/>
		<rect x="513.7" y="129.2" class="st2" width="16.5" height="16.5"/>
		<rect x="550.6" y="129.2" class="st2" width="16.5" height="16.5"/>
		<rect x="587.4" y="129.2" class="st2" width="16.5" height="16.5"/>
		<rect x="513.7" y="159.7" class="st2" width="16.5" height="16.5"/>
		<rect x="550.6" y="159.7" class="st2" width="16.5" height="16.5"/>
		<rect x="587.4" y="159.7" class="st2" width="16.5" height="16.5"/>
		<path class="st2" d="M542,173.5v79.4h112.4v-79.4H542z M650,248.5H546.5V178H650V248.5z"/>
		<rect x="553.1" y="188.9" class="st2" width="16.5" height="16.5"/>
		<rect x="590" y="188.9" class="st2" width="16.5" height="16.5"/>
		<rect x="626.8" y="188.9" class="st2" width="16.5" height="16.5"/>
		<rect x="553.1" y="219.4" class="st2" width="16.5" height="16.5"/>
		<rect x="590" y="219.4" class="st2" width="16.5" height="16.5"/>
		<rect x="626.8" y="219.4" class="st2" width="16.5" height="16.5"/>
		<rect x="346" y="393" class="st2" width="37.7" height="37.7"/>
		<path class="st2" d="M404.8,449h-42.1v-42.1h42.1V449z M367.1,444.6h33.3v-33.3h-33.3V444.6z"/>
	</g>
	<g id="freepik--pen-tool-5--inject-148">
		<circle class="st0" cx="375.3" cy="225.5" r="111.2"/>
		<path class="st3" d="M374.3,243.7V283h-33.3l-20.5-47.2L367,126.3h7.2V223c-5.7,0.7-9.7,6-9,11.7
			C365.9,239.4,369.6,243.1,374.3,243.7L374.3,243.7z M385.5,126.3h-7.2v96.9c5.6,1.3,9.1,6.9,7.8,12.5c-0.9,3.9-3.9,6.9-7.8,7.8
			V283h33.3l20.5-47.2L385.5,126.3z"/>
		<rect x="341.4" y="288.2" class="st4" width="70" height="23.7"/>
		<path class="st4" d="M386.3,233.3c0,4.8-3.3,9-8,10.2V283h33.3l20.5-47.2l-13.5-31.7c-10.8,8.5-22.2,16.4-34.1,23.4
			C385.7,229.2,386.3,231.3,386.3,233.3z"/>
		<path class="st4" d="M340.9,283h33.3v-39.3c-3.4-0.5-6.4-2.8-7.8-5.9c-13.8,7.4-26.7,13.3-37.4,17.7L340.9,283z"/>
		<path class="st5" d="M534.8,225.5c0-88.1-71.4-159.5-159.5-159.5s-159.5,71.4-159.5,159.5"/>
		<line class="st5" x1="277.5" y1="66" x2="473.2" y2="66"/>
		
			<ellipse transform="matrix(0.1602 -0.9871 0.9871 0.1602 250.0683 425.9266)" class="st6" cx="375.3" cy="66" rx="10.5" ry="10.5"/>
		<circle class="st6" cx="278.8" cy="66" r="10.5"/>
		<circle class="st6" cx="471.8" cy="66" r="10.5"/>
	</g>
	<g id="freepik--pen-tool-4--inject-148">
		
			<ellipse transform="matrix(0.7071 -0.7071 0.7071 0.7071 -20.6198 462.178)" class="st0" cx="547.6" cy="256" rx="48.2" ry="48.2"/>
		<path d="M539.5,293.8c-1.2,0-2.1-0.9-2.2-2.1l-4.6-65.5c-0.1-1.2,0.8-2.3,2.1-2.4c0.7,0,1.4,0.2,1.8,0.8l41.4,49.2
			c0.9,0.8,1,2.2,0.2,3.1c-0.8,0.9-2.2,1-3.1,0.2c-0.1-0.1-0.3-0.3-0.4-0.4l-37.1-44l4.1,58.8c0.1,1.2-0.8,2.3-2,2.3L539.5,293.8z"
			/>
	</g>
	<g id="freepik--pen-tool-3--inject-148">
		
			<ellipse transform="matrix(0.7071 -0.7071 0.7071 0.7071 -130.9454 443.7805)" class="st0" cx="470.2" cy="380" rx="48.2" ry="48.2"/>
		<path class="st3" d="M497.5,379.4l13.8-13.8l11.7,11.7l-9.4,23.8l-54.9,22.1l-2.5-2.5l34-34c2.3,1.7,5.5,1.2,7.2-1.1
			C498.8,383.9,498.8,381.4,497.5,379.4L497.5,379.4z M452.3,416.7l2.5,2.6l34.1-34.1c-1.5-2.4-0.7-5.6,1.7-7.1c1.7-1,3.8-1,5.4,0
			l13.9-13.9l-11.7-11.7l-23.8,9.4L452.3,416.7z"/>
		
			<rect x="510.7" y="341.4" transform="matrix(0.7071 -0.7071 0.7071 0.7071 -102.4314 470.3816)" class="st4" width="11.8" height="34.8"/>
		<path d="M450,426.5c-0.2,0-0.4,0-0.6-0.1c-0.2,0-20.7-6.5-18.4-25.7c1-9,5.7-14.3,10.1-19.4c4.8-5.4,9.2-10.6,9.6-20.3
			c0.6-17.7-13.8-21.7-14.5-21.9c-1.2-0.4-1.8-1.6-1.4-2.8c0.3-1,1.4-1.7,2.5-1.5c0.2,0,18.5,4.9,17.8,26.3
			c-0.4,11.3-5.6,17.2-10.6,23c-4.2,4.8-8.2,9.4-9.1,17c-1.8,15.5,14.6,20.8,15.3,21c1.2,0.3,1.8,1.6,1.5,2.7
			C451.9,425.8,451,426.5,450,426.5L450,426.5z"/>
	</g>
	<g id="freepik--pen-tool-2--inject-148">
		
			<ellipse transform="matrix(0.974 -0.2267 0.2267 0.974 -79.3485 72.705)" class="st0" cx="276.9" cy="381.9" rx="48.2" ry="48.2"/>
		<path class="st3" d="M299.4,380.3l13.8-13.8l11.7,11.7l-9.4,23.8l-54.9,22.1l-2.5-2.6l34-34c2.3,1.7,5.5,1.2,7.2-1.1
			C300.7,384.7,300.7,382.2,299.4,380.3L299.4,380.3z M254.2,417.6l2.5,2.5l34.1-34.1c-1.5-2.4-0.7-5.6,1.7-7.1c1.7-1,3.8-1,5.4,0
			l13.9-13.9l-11.8-11.7l-23.8,9.4L254.2,417.6z"/>
		
			<rect x="312.6" y="342.3" transform="matrix(0.7071 -0.7071 0.7071 0.7071 -161.0472 330.5608)" class="st4" width="11.8" height="34.8"/>
		<rect x="237.2" y="358.7" width="5.9" height="42.6"/>
		<rect x="218.8" y="377.1" width="42.6" height="5.9"/>
	</g>
	<g id="freepik--pen-tool-1--inject-148">
		
			<ellipse transform="matrix(0.7071 -0.7071 0.7071 0.7071 -121.7323 212.139)" class="st0" cx="195.2" cy="253" rx="48.2" ry="48.2"/>
		<path class="st3" d="M215.6,247.2l13.8-13.8l11.7,11.7l-9.4,23.8l-54.9,22.1l-2.5-2.6l34-34c2.3,1.7,5.6,1.2,7.2-1.1
			C216.9,251.6,216.9,249.1,215.6,247.2L215.6,247.2z M170.4,284.6l2.5,2.5l34.1-34c-1.5-2.4-0.8-5.6,1.7-7.1c1.7-1,3.8-1,5.5,0
			l13.9-13.9l-11.7-11.7l-23.8,9.4L170.4,284.6z"/>
		
			<rect x="228.8" y="209.3" transform="matrix(0.7071 -0.7071 0.7071 0.7071 -91.5343 232.3354)" class="st4" width="11.8" height="34.8"/>
		<rect x="135" y="244" width="42.6" height="5.9"/>
	</g>
</g>
</svg>
