<?xml version="1.0" encoding="utf-8"?>
<!-- Generator: Adobe Illustrator 24.3.0, SVG Export Plug-In . SVG Version: 6.00 Build 0)  -->
<svg version="1.1" id="Layer_1" xmlns="http://www.w3.org/2000/svg" xmlns:xlink="http://www.w3.org/1999/xlink" x="0px" y="0px"
	 viewBox="0 0 445.9 445.9" style="enable-background:new 0 0 445.9 445.9;" xml:space="preserve">
<style type="text/css">
	.st0{fill:none;stroke:#263238;stroke-linecap:round;stroke-linejoin:round;}
	.st1{fill:none;stroke:#7F7F7F;stroke-linecap:round;stroke-linejoin:round;}
	.st2{fill:#FFFDFD;}
	.st3{opacity:0.3;enable-background:new    ;}
	.st4{fill:#999999;stroke:#263238;stroke-linecap:round;stroke-linejoin:round;}
	.st5{fill:#FFFDFD;stroke:#263238;stroke-linecap:round;stroke-linejoin:round;}
	.st6{fill:#263238;stroke:#263238;stroke-linecap:round;stroke-linejoin:round;}
	.st7{fill:#858585;stroke:#263238;stroke-linecap:round;stroke-linejoin:round;}
	.st8{fill:#FFFFFF;stroke:#263238;stroke-linecap:round;stroke-linejoin:round;}
	.st9{fill:none;stroke:#7F7F7F;stroke-width:0.75;stroke-linecap:round;stroke-linejoin:round;}
	.st10{clip-path:url(#SVGID_2_);}
	.st11{fill:none;stroke:#263238;stroke-width:0.75;stroke-linecap:round;stroke-linejoin:round;}
	.st12{fill:#999999;stroke:#263238;stroke-width:0.75;stroke-linecap:round;stroke-linejoin:round;}
	.st13{fill:#FFFFFF;}
	.st14{clip-path:url(#SVGID_4_);}
	.st15{opacity:0.4;fill:#FFFFFF;enable-background:new    ;}
	.st16{fill:#263238;}
	.st17{fill:#FFFFFF;stroke:#263238;stroke-width:0.75;stroke-linecap:round;stroke-linejoin:round;}
	.st18{clip-path:url(#SVGID_6_);}
	.st19{opacity:0.3;fill:#FFFFFF;enable-background:new    ;}
	.st20{fill:#FFFDFD;stroke:#263238;stroke-width:0.75;stroke-linecap:round;stroke-linejoin:round;}
	.st21{clip-path:url(#SVGID_8_);}
	.st22{opacity:0.2;enable-background:new    ;}
	.st23{clip-path:url(#SVGID_10_);}
	.st24{fill:#FFFDFD;stroke:#263238;stroke-miterlimit:10;}
	.st25{clip-path:url(#SVGID_12_);}
	.st26{fill:none;stroke:#263238;stroke-miterlimit:10;}
</style>
<g id="freepik--Floor--inject-48">
	<line class="st0" x1="16.2" y1="381.5" x2="429.7" y2="381.5"/>
</g>
<g id="freepik--Plant--inject-48">
	<path class="st1" d="M87,267.5c6,5,4,34.4,22.8,21.8s-13.2-20.1-11.4-27.3c2.6-10,44.8,2,37.7-17.2s-32.3,9.7-38.9,2.5
		c-6.1-6.6,24.3-30.4,10.1-34.4S96.1,243.2,87,243.2c-7.1,0-5.8-32.9-18.8-21.2s15.5,23.1,11.7,30.3c-2.8,5.5-25.3-8.1-24.3,4.6
		S80.6,262.2,87,267.5z"/>
	<path class="st0" d="M91,252.4c0,0-13.6,16.5-12.1,61.6"/>
	<path class="st2" d="M117.6,275.9c-2.4-4.9-22.5-8.2-11-18.8s11.4,12.1,16.6,12c7.1-0.1,5.8-30.4,17.6-22.6s-11.7,20.2-7.9,25.8
		c3.4,5.1,24.3-11.5,24.7-1.3s-22.2,2.6-23.6,8.8c-1.1,4.8,21.2,9.1,11.3,16s-13.1-14.1-18.5-12.7c-4.1,1,1.4,18.3-6.9,15.6
		S120.1,281,117.6,275.9z"/>
	<path class="st3" d="M117.6,275.9c-2.4-4.9-22.5-8.2-11-18.8s11.4,12.1,16.6,12c7.1-0.1,5.8-30.4,17.6-22.6s-11.7,20.2-7.9,25.8
		c3.4,5.1,24.3-11.5,24.7-1.3s-22.2,2.6-23.6,8.8c-1.1,4.8,21.2,9.1,11.3,16s-13.1-14.1-18.5-12.7c-4.1,1,1.4,18.3-6.9,15.6
		S120.1,281,117.6,275.9z"/>
	<path class="st0" d="M128,276.1c0,0-38.9-4-42.7,37.9"/>
	<path class="st2" d="M53.8,271.5c-6,5-4,34.4-22.8,21.8s13.2-20.1,11.4-27.3c-2.6-10-44.8,2-37.7-17.2s32.3,9.7,39,2.5
		c6.1-6.6-24.3-30.4-10.1-34.4s11.1,30.4,20.2,30.4c7.1,0,5.8-32.9,18.8-21.2c13.1,11.6-15.5,23.1-11.7,30.3
		c2.8,5.5,25.3-8.1,24.3,4.6S60.2,266.2,53.8,271.5z"/>
	<path class="st4" d="M53.8,271.5c-6,5-4,34.4-22.8,21.8s13.2-20.1,11.4-27.3c-2.6-10-44.8,2-37.7-17.2s32.3,9.7,39,2.5
		c6.1-6.6-24.3-30.4-10.1-34.4s11.1,30.4,20.2,30.4c7.1,0,5.8-32.9,18.8-21.2c13.1,11.6-15.5,23.1-11.7,30.3
		c2.8,5.5,25.3-8.1,24.3,4.6S60.2,266.2,53.8,271.5z"/>
	<path class="st0" d="M49.5,256.5c0,0,17.7,23.6,21.8,63.1"/>
	<path class="st5" d="M62.2,381.3h27.6c5.3,0,9.8-4,10.2-9.3l4.3-51c0.5-5.6-3.7-10.5-9.3-11c-0.3,0-0.5,0-0.8,0H57.8
		c-5.6,0-10.2,4.6-10.2,10.2c0,0.3,0,0.5,0,0.8l4.3,51C52.5,377.2,56.9,381.3,62.2,381.3z"/>
</g>
<g id="freepik--Character--inject-48">
	<path class="st6" d="M268.8,308.1c-9.2,0-35.9-6-35.9-6h71.7C304.7,302.1,278.1,308.1,268.8,308.1z"/>
	<rect x="260.6" y="305.1" class="st7" width="16.4" height="11.3"/>
	<rect x="258.2" y="316.3" class="st4" width="21.3" height="48.5"/>
	<path class="st7" d="M308.9,287.7H295c1.5-9.5,2.7-19.3,3.4-28.9h13.8C311.5,268.4,310.4,278.1,308.9,287.7z"/>
	<path class="st7" d="M329.9,173.4h-59.7c-7,0-11.6,5.9-10.2,12.9c3.8,21.3,6.1,42.9,6.8,64.5c0,6.2,4.9,11.2,11.1,11.2
		c0.1,0,0.1,0,0.2,0h50.2c6.5-0.1,11.9-4.8,12.8-11.2c2.4-21.4,3.3-43,2.6-64.5C343.4,179.4,336.9,173.4,329.9,173.4z"/>
	<path class="st4" d="M333.1,186.4c0.7,21.5-0.2,43.1-2.6,64.5c-0.9,6.4-6.4,11.1-12.8,11.2H278c-6.2,0.1-11.2-4.9-11.2-11
		c0-0.1,0-0.1,0-0.2c-0.7-21.6-3-43.2-6.8-64.5c-1.4-7,3.2-12.9,10.2-12.9h49.1C326.3,173.4,332.8,179.4,333.1,186.4z"/>
	<path class="st6" d="M304.7,373.5c0,1-0.8,1.8-1.8,1.8c-0.1,0-0.3,0-0.4,0c-6.5-1.4-26.1-5.5-33.7-5.5s-27.2,4.1-33.7,5.5
		c-1,0.2-1.9-0.4-2.1-1.3c0-0.1,0-0.3,0-0.4l0,0c0-2.2,1.5-4.1,3.7-4.6c7.6-1.6,25.1-5.2,32.2-5.2s24.5,3.6,32.2,5.2
		C303.2,369.4,304.7,371.3,304.7,373.5z"/>
	<path class="st7" d="M233,369.9c-3.4,0-6.1,2.7-6.1,6.1s2.7,6.1,6.1,6.1c3.4,0,6.1-2.7,6.1-6.1c0,0,0,0,0,0
		C239.1,372.6,236.3,369.9,233,369.9z M233,379.3c-1.8,0-3.3-1.5-3.3-3.3c0-1.8,1.5-3.3,3.3-3.3s3.3,1.5,3.3,3.3c0,0,0,0,0,0
		C236.3,377.8,234.8,379.3,233,379.3z"/>
	<path class="st7" d="M268.8,369.9c-3.4,0-6.1,2.7-6.2,6.1c0,3.4,2.7,6.1,6.1,6.2c3.4,0,6.1-2.7,6.2-6.1c0,0,0,0,0-0.1
		C274.9,372.6,272.2,369.9,268.8,369.9z M268.8,379.3c-1.8,0-3.3-1.5-3.3-3.3c0-1.8,1.5-3.3,3.3-3.3c1.8,0,3.3,1.5,3.3,3.3
		C272.2,377.8,270.7,379.3,268.8,379.3C268.9,379.3,268.9,379.3,268.8,379.3z"/>
	<path class="st7" d="M304,369.9c-3.4,0-6.1,2.7-6.1,6.1c0,3.4,2.7,6.1,6.1,6.1c3.4,0,6.1-2.7,6.1-6.1c0,0,0,0,0,0
		C310.1,372.6,307.4,369.9,304,369.9C304,369.9,304,369.9,304,369.9z M304,379.3c-1.8,0-3.3-1.5-3.3-3.3s1.5-3.3,3.3-3.3
		s3.3,1.5,3.3,3.3v0C307.3,377.8,305.8,379.3,304,379.3z"/>
	<path class="st4" d="M287,285.7c-23.9,0.8-47.9-0.3-71.7-3.2c-4.1-0.7-8,2-8.7,6c-0.1,0.5-0.1,1-0.1,1.5v1.2
		c0.1,5.1,3.8,9.3,8.8,10.2c23.8,2.9,47.7,3.9,71.7,3.2V285.7z"/>
	<path class="st7" d="M324.6,301.2c-14.9,1.9-29.6,3.1-44.5,3.7c-3.5,0.1-6.5-2.7-6.6-6.2c0-0.1,0-0.2,0-0.2v-5.8
		c0-3.7,3-6.6,6.6-6.7c15-0.6,29.7-1.9,44.5-3.7c3-0.6,5.9,1.4,6.5,4.4c0.1,0.4,0.1,0.8,0.1,1.2v5.8
		C331.1,297.4,328.3,300.5,324.6,301.2z"/>
	<path class="st8" d="M225.1,379c0-3.3-0.7-10-4.7-18.6l-5.1-18.5l-16,6.8l4.5,14.2c0,0-13.8,6.6-18.8,8.3c-3.4,1.2-13.5,3.5-13,7.8
		l0,0c0,1.3,1,2.3,2.3,2.3h48.5C224.1,381.3,225.1,380.3,225.1,379C225.1,379,225.1,379,225.1,379z"/>
	<path class="st5" d="M216.3,368.1c-2.5,1.8-15.8,4.2-12.5,1.5s0-6.8,0-6.8s-13.8,6.6-18.8,8.3c-3.4,1.2-13.5,3.5-13,7.8
		c0,1.3,1,2.3,2.3,2.3h48.5c1.3,0,2.3-1,2.3-2.3c0,0,0,0,0,0c-0.2-5.1-1.2-10.1-3.1-14.8C219.3,364.2,218.8,366.3,216.3,368.1z"/>
	<path class="st8" d="M236.7,381.3h35.5c0.7,0,1.4-0.5,1.5-1.2c0.5-2.8,0.4-9.1-2.8-17.5l-0.3-17l-18.2,3.1l2.3,14.5
		c0,0-7.3,8.1-10.8,9.5c-2.4,1-8,1.1-8.7,7c-0.1,0.8,0.5,1.6,1.4,1.7C236.6,381.3,236.7,381.3,236.7,381.3z"/>
	<path class="st5" d="M265,368.2c-3.8,2.6-6.5,2.9-4.8-1s-5.4-4.1-5.4-4.1s-7.3,8.1-10.8,9.5c-2.4,1-8,1.1-8.7,7
		c-0.1,0.8,0.5,1.6,1.3,1.7c0.1,0,0.1,0,0.2,0h35.5c0.7,0,1.4-0.5,1.5-1.2c0.5-2.8,0.4-9.1-2.8-17.5
		C268.2,363.2,268.7,365.6,265,368.2z"/>
	<path class="st6" d="M233.2,251.5c0,0-3.6,3.7-18.2,6s-45,9.7-44.6,21.7s28.3,76,28.3,76s14-2.7,20.5-6.7c0,0-11.3-45.7-19.7-57.7
		c0,0,37.9-4.7,58.9-13.3s8.6-28.4,8.6-28.4L233.2,251.5z"/>
	<path class="st6" d="M257,249.8c0,0,5.4,9,1.4,14s-26.9,14.3-24.3,25.7s11.1,27.3,16.6,65.3c0,0,12.9-2,21.6-5.7
		c0,0,1.4-38.7-8.6-55.3c0,0,28.8-5.3,31.7-15s-2.5-24.5-2.6-29.7L257,249.8z"/>
	<path class="st9" d="M239.7,264.1c-0.7-0.1-1.3-0.1-2,0"/>
	<path class="st9" d="M241,258.1c0,0,5.9,1.7,8.2,9.5c0.1,0.3-0.1,0.7-0.5,0.7c-0.2,0-0.4,0-0.5-0.1c-1.6-1.6-3.5-2.9-5.7-3.6"/>
	<path class="st9" d="M196.7,290.4c0-3.2-14-5-10.2-8s12.2,6.8,12.2,6.8"/>
	<path class="st9" d="M265.5,303.4c0-3.7-13.4-5.8-12.7-9.8s9.2,3.9,9.2,3.9"/>
	<path class="st4" d="M197.2,355.4l1.5,3.4c0.2,0.4,0.6,0.6,1,0.5c3.2-0.7,16.7-3.9,21.4-7.3c0.3-0.2,0.4-0.6,0.3-0.9l-0.9-3.8
		c-0.1-0.5-0.6-0.8-1-0.6c-0.1,0-0.2,0-0.2,0.1c-2.1,1.2-8.1,3.9-21.4,7.5c-0.5,0.1-0.8,0.6-0.6,1.1
		C197.2,355.3,197.2,355.3,197.2,355.4z"/>
	<path class="st4" d="M249.1,352.6c-0.1-0.4,0.2-0.7,0.6-0.8c0.1,0,0.2,0,0.3,0c1.6,0.5,3.4,0.5,5,0.1c3.7-0.8,14.3-4.2,17.5-5.2
		c0.4-0.1,0.8,0.1,0.9,0.4c0,0.1,0,0.1,0,0.2v4.4c0,0.3-0.2,0.5-0.4,0.6c-2.5,1.1-15.8,6.8-22.7,5.2c-0.3-0.1-0.5-0.3-0.5-0.6
		L249.1,352.6z"/>
	<path class="st1" d="M259.8,260c-0.1,1.4-0.6,2.7-1.5,3.8c-2.9,3.6-15.9,9.6-21.7,17"/>
	<path class="st1" d="M259.2,255c0.2,0.7,0.4,1.5,0.5,2.2"/>
	<path class="st0" d="M182.6,373.4c0.8,1.5,1.4,3.1,1.8,4.8h36.1c0.1-1.6,0.8-3,2-4.1"/>
	<path class="st0" d="M245.4,373.4c0,0,5,0.4,6.9,4.8h18.9c0.6-1.3,0.9-2.7,1-4.1"/>
	<path class="st2" d="M215.8,195c0.5,1.8,0.9,3.5,1.4,5.2c5,18,11.5,52.2,11.5,52.2c32,6.8,65.8,0,65.8,0c0.2-7.5-0.7-17.3-1.7-27.7
		c5.2-1.4,9-6.3,9.2-14.3c0.2-9.8-1.5-27.3-2.5-35.5c-0.9-7.2-0.2-11.5-11.4-17c-5.6-3.2-14.9-4.8-26.3-6.3c-22.5-3-38.7,1.6-44.5,4
		c-4.6-1.2-5.8,4.2-5.8,4.2c-2.5-1.9-5.5,6.2-5.5,6.2c-7.4,9.4-13.2,25.3-15.2,31c-0.4,1.2-1.2,2.3-2.3,3.1c-5.2,4-2.3,8.9-2.3,8.9
		l10.8,3.3c0,0,5.2,1.4,9.2-5.5C209.4,201.1,214.8,191.4,215.8,195z"/>
	<g>
		<defs>
			<path id="SVGID_1_" d="M215.8,195c0.5,1.8,0.9,3.5,1.4,5.2c5,18,11.5,52.2,11.5,52.2c32,6.8,65.8,0,65.8,0
				c0.2-7.5-0.7-17.3-1.7-27.7c5.2-1.4,9-6.3,9.2-14.3c0.2-9.8-1.5-27.3-2.5-35.5c-0.9-7.2-0.2-11.5-11.4-17
				c-5.6-3.2-14.9-4.8-26.3-6.3c-22.5-3-38.7,1.6-44.5,4c-4.6-1.2-5.8,4.2-5.8,4.2c-2.5-1.9-5.5,6.2-5.5,6.2
				c-7.4,9.4-13.2,25.3-15.2,31c-0.4,1.2-1.2,2.3-2.3,3.1c-5.2,4-2.3,8.9-2.3,8.9l10.8,3.3c0,0,5.2,1.4,9.2-5.5
				C209.4,201.1,214.8,191.4,215.8,195z"/>
		</defs>
		<clipPath id="SVGID_2_">
			<use xlink:href="#SVGID_1_"  style="overflow:visible;"/>
		</clipPath>
		<g class="st10">
			<path class="st3" d="M198.8,207.8c0,0-0.2-5-4.2-5.9s1.1-2.4,4.2-1.6s2.4-2,5.1-6.5s4-8.1,6.3-5.5s4.6,3,5.6,6.5s-3.8,12-3.8,12
				l-7.5,5.8l-3.8,2.1h-5.7l-1.9-4.9L198.8,207.8z"/>
		</g>
	</g>
	<path class="st0" d="M215.8,195c0.5,1.8,0.9,3.5,1.4,5.2c5,18,11.5,52.2,11.5,52.2c32,6.8,65.8,0,65.8,0c0.2-7.5-0.7-17.3-1.7-27.7
		c5.2-1.4,9-6.3,9.2-14.3c0.2-9.8-1.5-27.3-2.5-35.5c-0.9-7.2-0.2-11.5-11.4-17c-5.6-3.2-14.9-4.8-26.3-6.3c-22.5-3-38.7,1.6-44.5,4
		c-4.6-1.2-5.8,4.2-5.8,4.2c-2.5-1.9-5.5,6.2-5.5,6.2c-7.4,9.4-13.2,25.3-15.2,31c-0.4,1.2-1.2,2.3-2.3,3.1c-5.2,4-2.3,8.9-2.3,8.9
		l10.8,3.3c0,0,5.2,1.4,9.2-5.5C209.4,201.1,214.8,191.4,215.8,195z"/>
	<path class="st3" d="M294.4,252.4c0-6.4-0.3-12.8-1-19.2c1.1,15.2-30.6,20-31.6,11.7s30.8-20.2,13.5-16
		c-15.1,3.6-44.4,0.2-51.6-0.8c2.8,13,4.9,24.3,4.9,24.3C260.7,259.1,294.4,252.4,294.4,252.4z"/>
	<path class="st3" d="M279.9,175.9c0,0-4.5,13.2-4.5,20.2s-12.7,11.7-12.7,11.7c6.8-1.4,13.4-3.2,16.6-4.1c1.1-0.3,1.9-1.4,1.8-2.6
		C280.2,192.8,279.8,184.3,279.9,175.9L279.9,175.9z"/>
	<path class="st11" d="M211.6,172.6c0,6.2,1.2,12.4,3.3,18.3c0.2,0.4-0.1,0.9-0.5,1.1c-0.3,0.1-0.6,0.1-0.8-0.1
		c-1.7-1.2-4.1-3.7-6.3-8.8"/>
	<path class="st11" d="M296.4,213.4c-2.6-8.8-7.2-10.9-10.8-11.2c-0.3,0-0.5-0.3-0.5-0.6c0-0.1,0.1-0.3,0.2-0.4
		c2.1-1.1,6.1-2,11,3.5"/>
	<path class="st12" d="M245.7,188.3c-0.1,0.8-0.8,1.4-1.7,1.3c-0.7-0.1-1.2-0.6-1.3-1.3c-0.1-0.8,0.5-1.6,1.3-1.7
		c0.8-0.1,1.6,0.5,1.7,1.3C245.7,188.1,245.7,188.2,245.7,188.3z"/>
	<path class="st12" d="M247.7,205.4c0,0.8-0.7,1.5-1.5,1.5s-1.5-0.7-1.5-1.5s0.7-1.5,1.5-1.5l0,0
		C247.1,203.9,247.7,204.5,247.7,205.4z"/>
	<path class="st4" d="M252.8,246.4c0,0.8-0.7,1.5-1.5,1.5s-1.5-0.7-1.5-1.5c0-0.8,0.7-1.5,1.5-1.5c0,0,0,0,0,0
		C252.1,244.9,252.7,245.6,252.8,246.4z"/>
	<path class="st8" d="M224,216.5c0,0-4.9,4.7-2.6,4.8s5.3-3.1,8-3.5c2.7-0.4-1.7-2-1.7-2L224,216.5z"/>
	<path class="st8" d="M252.7,211.2c-0.4-0.4-1-0.6-1.6-0.5c-2.4,0.2-9.3,0.7-11.9,0.6c-4.6-0.3-18.2-3.2-18.2-3.2
		c-0.3-0.1-0.6,0-0.9,0.1l-8.4,2.5c-0.3,0.1-0.6,0.3-0.8,0.5l-5.1,4.7c-0.2,0.2-0.3,0.3-0.4,0.5l-1.1,1.9c-0.4,0.8-0.3,1.8,0.4,2.5
		l0,0l8.4,0.2c0.5,0,1-0.2,1.4-0.5l2.5-2.1c0.2-0.1,0.3-0.3,0.4-0.5c0.6-1,3-4.3,6.7-4c0,0-8,4.2-6.5,6s7.6-3.2,9.6-2.8
		c2,0.5,2.1,5.4,13,3.6c0.5-0.1,1-0.1,1.5,0.1l9.9,2.8c1.2,0.3,2.5-0.4,2.8-1.6c0,0,0,0,0,0C255.1,219.1,255.8,214.1,252.7,211.2z"
		/>
	<path class="st8" d="M222.1,209.9l-2.1,0.4c-1,0.2-2,0.6-2.8,1.3l-2.3,1.9c-0.4,0.3-0.7,0.7-1,1.2l-1.4,2.2
		c-0.2,0.2-0.3,0.5-0.5,0.7c-0.9,1-3.2,3.8-0.7,3.4"/>
	<path class="st8" d="M216.2,210.6l-2.2,0.6c-0.7,0.2-1.3,0.5-1.8,1l-1.7,1.6c-0.2,0.1-0.3,0.3-0.4,0.5l-2.8,3.7c0,0-1.5,2.6,0,2.7"
		/>
	<path class="st0" d="M280,173.8c-0.2,9.1,0.1,18.3,1,27.4c0.1,1.2-0.6,2.2-1.8,2.6c-8,2.4-16,4.2-24.2,5.4"/>
	<path class="st11" d="M280.4,167.6c-0.1,1-0.2,2.1-0.3,3.2"/>
	<path class="st11" d="M283.8,158.2c-1.1,1-2,2.8-2.6,5.2"/>
	<path class="st13" d="M233.7,152.3c0,0,0.6-2,4-3.1s15.1-2.9,21.1,0s-5.5,18.8-5.5,18.8l-5.3,7.4l-4.8,3.6l-2.1-6.3l-2.8-2.9
		c0,0-5.9-4.9-5.4-9.7S233.7,152.3,233.7,152.3z"/>
	<path class="st2" d="M263.2,151.8c-0.9-3.3-5.2-4.2-5.2-4.2c-20.5-3.5-24.8,4-24.8,4c-2.5,6.8-2.5,14.2,0,21c0,0,5.8-2.4,6.8,0
		s2.8,7.6,2.8,7.6c2.8-1.6,5.2-3.7,7.1-6.2c3.2-4.2,10.6,0,10.6,0C265.4,165.6,263.2,151.8,263.2,151.8z M258.2,151.6
		c-7.9,24.9-14.9,26-14.9,26c-2.3-9.2-4.3-7.2-7.5-12.9c-2.5-4.6-1.7-10.4-1.2-12.6c0.1-0.5,0.4-1,0.9-1.2c7.9-4,17.5-2.5,21.5-1.7
		c1,0.2,1.6,1.1,1.4,2.1C258.3,151.5,258.3,151.5,258.2,151.6L258.2,151.6z"/>
	<g>
		<defs>
			<path id="SVGID_3_" d="M263.2,151.8c-0.9-3.3-5.2-4.2-5.2-4.2c-20.5-3.5-24.8,4-24.8,4c-2.5,6.8-2.5,14.2,0,21c0,0,5.8-2.4,6.8,0
				s2.8,7.6,2.8,7.6c2.8-1.6,5.2-3.7,7.1-6.2c3.2-4.2,10.6,0,10.6,0C265.4,165.6,263.2,151.8,263.2,151.8z M258.2,151.6
				c-7.9,24.9-14.9,26-14.9,26c-2.3-9.2-4.3-7.2-7.5-12.9c-2.5-4.6-1.7-10.4-1.2-12.6c0.1-0.5,0.4-1,0.9-1.2
				c7.9-4,17.5-2.5,21.5-1.7c1,0.2,1.6,1.1,1.4,2.1C258.3,151.5,258.3,151.5,258.2,151.6L258.2,151.6z"/>
		</defs>
		<clipPath id="SVGID_4_">
			<use xlink:href="#SVGID_3_"  style="overflow:visible;"/>
		</clipPath>
		<g class="st14">
			<path class="st15" d="M263.2,151.8c-0.9-3.3-5.2-4.2-5.2-4.2c-20.5-3.5-24.8,4-24.8,4c-2.5,6.8-2.5,14.2,0,21c0,0,5.8-2.4,6.8,0
				s2.8,7.6,2.8,7.6c2.8-1.6,5.2-3.7,7.1-6.2c3.2-4.2,10.6,0,10.6,0C265.4,165.6,263.2,151.8,263.2,151.8z M258.2,151.6
				c-7.9,24.9-14.9,26-14.9,26c-2.3-9.2-4.3-7.2-7.5-12.9c-2.5-4.6-1.7-10.4-1.2-12.6c0.1-0.5,0.4-1,0.9-1.2
				c7.9-4,17.5-2.5,21.5-1.7c1,0.2,1.6,1.1,1.4,2.1C258.3,151.5,258.3,151.5,258.2,151.6L258.2,151.6z"/>
		</g>
	</g>
	<path class="st0" d="M263.2,151.8c-0.9-3.3-5.2-4.2-5.2-4.2c-20.5-3.5-24.8,4-24.8,4c-2.5,6.8-2.5,14.2,0,21c0,0,5.8-2.4,6.8,0
		s2.8,7.6,2.8,7.6c2.8-1.6,5.2-3.7,7.1-6.2c3.2-4.2,10.6,0,10.6,0C265.4,165.6,263.2,151.8,263.2,151.8z M258.2,151.6
		c-7.9,24.9-14.9,26-14.9,26c-2.3-9.2-4.3-7.2-7.5-12.9c-2.5-4.6-1.7-10.4-1.2-12.6c0.1-0.5,0.4-1,0.9-1.2c7.9-4,17.5-2.5,21.5-1.7
		c1,0.2,1.6,1.1,1.4,2.1C258.3,151.5,258.3,151.5,258.2,151.6L258.2,151.6z"/>
	<path class="st6" d="M229.8,113.8c0,0-17.7,3.5-7.9,15C232.6,141.5,229.8,113.8,229.8,113.8z"/>
	<path class="st8" d="M222.8,141.8c0,0-4.2-17,3.8-25.2s16.7-9.8,23.2-5.8s9.2,14,8.2,19.2s-0.5,23.7-9.4,31.3s-14.4,5.8-20.3-4.7
		C224.3,149.8,222.5,147.8,222.8,141.8z"/>
	<path class="st6" d="M253.8,138.5c0,0-6.7-6.7-8.8-14.5s-3.2-9.2-10.9-5.3s-19.6-1.3-16.5-11c3.3-10.2,13.3,3,23-0.3
		s16.5,2.7,16.5,11.5c0,0,5.8,5.7,0,20.3L253.8,138.5z"/>
	<path class="st8" d="M251.7,137.4c0,0,1.7-9.3,6.4-8.5s1.4,14.6-4.2,13.1"/>
	<path class="st8" d="M229.2,140.5c0,0-1.9,8.6-1.2,10.1s6.3,0.4,6.3,0.4"/>
	<path class="st8" d="M235.1,154.8c0,0,4.5,1.8,8.4-4.1"/>
	<path class="st16" d="M226.1,141.2c0.2,0.8-0.1,1.5-0.5,1.6s-0.9-0.5-1.1-1.3s0-1.5,0.5-1.6S226,140.4,226.1,141.2z"/>
	<path class="st16" d="M237.1,140.4c0.2,0.8,0,1.5-0.5,1.6s-0.9-0.5-1.1-1.3s0-1.5,0.5-1.6S237,139.5,237.1,140.4z"/>
	<path class="st0" d="M228.4,140.9c0.2,2.3-2,4.4-5.1,4.6s-5.7-1.3-5.9-3.6s2.2-3.3,5.2-3.6S228.2,138.6,228.4,140.9z"/>
	<path class="st0" d="M242.6,139.4c0.2,2.3-2,4.4-5.1,4.6s-5.7-1.3-5.9-3.6s2.2-3.3,5.2-3.6S242.3,137.2,242.6,139.4z"/>
	<line class="st0" x1="228.4" y1="140.9" x2="231.6" y2="140.5"/>
	<line class="st0" x1="242.2" y1="138.3" x2="253.8" y2="131.5"/>
	<line class="st0" x1="255.8" y1="149" x2="256.3" y2="150.3"/>
	<path class="st8" d="M221.9,137.2c0,0,1.8-2.2,3.9-1.2"/>
	<path class="st8" d="M240,136.2c0,0-3.1-3-6.1-0.9"/>
	<path class="st1" d="M225.8,108.8c4.7,1.5,12.7,3.3,19.2,1.4c10-3,6.6,8.2,8.8,11.3"/>
	<path class="st1" d="M221.7,107.3c0,0,0.8,0.4,2.1,0.8"/>
	<path class="st1" d="M233.6,114.3c0.5-0.2,1.1-0.4,1.7-0.6"/>
	<path class="st1" d="M222.8,113c0,0,2.1,3.3,8.9,1.8"/>
	<path class="st1" d="M248.2,119.4c0.5,3.9,2,7.5,4.2,10.7"/>
	<path class="st1" d="M248,115.9c0,0.6,0,1.2,0.1,1.8"/>
	<path class="st3" d="M256.8,223.2c-0.5,0.4-0.6,1.1-0.1,1.6c0.2,0.3,0.5,0.4,0.9,0.4c6.8,0,25,0.1,32-0.3c8.8-0.5,2.1-10-5-6.4
		C278.2,221.9,264.5,216.3,256.8,223.2z"/>
	<path class="st8" d="M180.7,213.8c0,0,4.1-10.9,14.4-9.2s2.4,10.3-2.5,11.1C192.5,215.7,191.8,212.7,180.7,213.8z"/>
	<path class="st8" d="M172,220c-1.4,1.4-4.6,1.5-2.4-1.5c1.8-2.4,4.2-4.2,7-5.2c4.9-2.2,6.8-1.7,11.2-2.7s5.2,0.8,6.8,1.7
		c3.6,2,4.5,2.3,5.4,4.3s1.9,4.6-0.9,4.6c-2.6,0-2.8-4.3-5.2-4.1s-3.8,4.1-5.5,4.1h-0.7c-1.5,0-1.6-1.2-0.7-3.2s1.9-3.7,1.9-3.7
		c-1.5,0.8-2.7,2-3.4,3.6c-1.2,2.6-1.4,3.6-3.6,3.6s-2-1.6,0.1-5.3c-1.3,0.8-2.3,1.8-3.1,3.1c-1.1,2-1.6,1.9-3.1,1.9
		c-1.9,0-1.7-3.1,1.6-5.1C177.4,216.2,176.7,215.3,172,220z"/>
	<path class="st17" d="M184.8,212.7c0,0-1.3-0.1-2.1,2.1"/>
</g>
<g id="freepik--Code--inject-48">
	<path class="st11" d="M349.2,118.5c6.5,5.1,12.6,10.5,18.4,16.3"/>
	<path class="st11" d="M342.2,113.3c1.2,0.9,2.4,1.8,3.6,2.7"/>
	<path class="st11" d="M335.2,108.5c1.3,0.8,2.5,1.7,3.7,2.5"/>
	<path class="st11" d="M284.1,84.3c16.6,5.2,32.4,12.4,47.1,21.6"/>
	<path class="st11" d="M273.1,81.2c2,0.5,4,1.1,6,1.6"/>
	<path class="st11" d="M261.9,78.7c2.2,0.4,4.4,0.9,6.6,1.4"/>
	<path class="st11" d="M251.9,77c1.9,0.3,3.8,0.6,5.7,0.9"/>
	<path class="st11" d="M191.6,77.4c18.5-2.9,37.4-3.2,56-1"/>
	<path class="st11" d="M183.3,78.9c1.7-0.3,3.4-0.7,5.1-0.9"/>
	<path class="st11" d="M175.3,80.6c1.7-0.4,3.4-0.8,5.1-1.2"/>
	<path class="st11" d="M165.5,83.2c1.7-0.5,3.5-1,5.2-1.5"/>
	<path class="st11" d="M106,111.9c16.6-11.6,34.8-20.7,54-26.9"/>
	<path class="st11" d="M98,117.8c1.6-1.2,3.1-2.4,4.7-3.6"/>
	<path class="st11" d="M89.9,124.4c1.7-1.5,3.4-2.9,5.2-4.3"/>
	<path class="st11" d="M78.6,134.8c2.3-2.3,4.7-4.6,7.2-6.8"/>
	
		<ellipse transform="matrix(0.2319 -0.9727 0.9727 0.2319 5.6941 203.8713)" class="st2" cx="131.9" cy="98.3" rx="24.9" ry="24.9"/>
	<g>
		<defs>
			
				<ellipse id="SVGID_5_" transform="matrix(0.2319 -0.9727 0.9727 0.2319 5.6941 203.8713)" cx="131.9" cy="98.3" rx="24.9" ry="24.9"/>
		</defs>
		<clipPath id="SVGID_6_">
			<use xlink:href="#SVGID_5_"  style="overflow:visible;"/>
		</clipPath>
		<g class="st18">
			
				<ellipse transform="matrix(0.2319 -0.9727 0.9727 0.2319 5.6941 203.8713)" class="st19" cx="131.9" cy="98.3" rx="24.9" ry="24.9"/>
		</g>
	</g>
	
		<ellipse transform="matrix(0.2319 -0.9727 0.9727 0.2319 5.6941 203.8713)" class="st11" cx="131.9" cy="98.3" rx="24.9" ry="24.9"/>
	<path class="st17" d="M120,108.1v-6.2c0-1.6-0.4-2-2.1-2v-3.1c1.7,0,2.1-0.5,2.1-2v-6.2c-0.2-1.9,1.2-3.6,3.2-3.8
		c0.2,0,0.4,0,0.6,0h1.9v3h-0.6c-1.2,0-1.8,0.5-1.8,2.4v5.1c0.1,1.4-0.7,2.6-2.1,3v0.1c1.3,0.4,2.2,1.6,2.1,3v5.1
		c0,1.9,0.6,2.4,1.8,2.4h0.6v3h-1.9c-1.9,0.2-3.6-1.2-3.8-3.2C119.9,108.5,119.9,108.3,120,108.1z"/>
	<path class="st17" d="M138.2,108.8h0.5c1.2,0,1.8-0.5,1.8-2.4v-5.1c-0.1-1.4,0.7-2.6,2.1-3v-0.1c-1.3-0.4-2.2-1.6-2.1-3v-5.1
		c0-1.9-0.6-2.4-1.8-2.4h-0.5v-3h1.9c1.9-0.2,3.6,1.2,3.8,3.2c0,0.2,0,0.4,0,0.6v6.2c0,1.6,0.4,2,2.1,2v3.1c-1.7,0-2.1,0.5-2.1,2
		v6.2c0.2,1.9-1.2,3.6-3.2,3.8c-0.2,0-0.4,0-0.6,0h-1.9V108.8z"/>
	<path class="st20" d="M69.4,130.1h14.4c6.6,0,12,5.4,12,12v14.3c0,6.6-5.4,12-12,12H69.4c-6.6,0-12-5.4-12-12V142
		C57.4,135.4,62.8,130.1,69.4,130.1z"/>
	<path class="st17" d="M62.7,150.1v-1.9l7.7-3.3v2l-5.3,2.2l5.3,2.2v2L62.7,150.1z"/>
	<path class="st17" d="M78.8,140.5h2.4L74.3,158h-2.4L78.8,140.5z"/>
	<path class="st17" d="M82.8,151.4l5.3-2.2l-5.3-2.2v-2l7.7,3.3v1.9l-7.7,3.3V151.4z"/>
	
		<ellipse transform="matrix(0.2277 -0.9737 0.9737 0.2277 147.9583 371.9065)" class="st2" cx="308.4" cy="92.7" rx="21.2" ry="21.2"/>
	<g>
		<defs>
			
				<ellipse id="SVGID_7_" transform="matrix(0.2277 -0.9737 0.9737 0.2277 147.9583 371.9065)" cx="308.4" cy="92.7" rx="21.2" ry="21.2"/>
		</defs>
		<clipPath id="SVGID_8_">
			<use xlink:href="#SVGID_7_"  style="overflow:visible;"/>
		</clipPath>
		<g class="st21">
			
				<ellipse transform="matrix(0.2277 -0.9737 0.9737 0.2277 147.9583 371.9065)" class="st22" cx="308.4" cy="92.7" rx="21.2" ry="21.2"/>
		</g>
	</g>
	
		<ellipse transform="matrix(0.2277 -0.9737 0.9737 0.2277 147.9583 371.9065)" class="st11" cx="308.4" cy="92.7" rx="21.2" ry="21.2"/>
	<path class="st17" d="M295.3,97.1v-8.8c0-2.5,1.3-4,3.8-4s3.8,1.5,3.8,4V90h-2.4v-1.9c0-1.1-0.5-1.5-1.3-1.5s-1.3,0.4-1.3,1.5v9.1
		c0,1.1,0.5,1.5,1.3,1.5s1.3-0.4,1.3-1.5v-2.5h2.4v2.3c0,2.5-1.3,4-3.8,4S295.3,99.6,295.3,97.1z"/>
	<path class="st17" d="M307.2,93.6h-3.1v-1.8h3.1v-3.2h1.8v3.2h3.1v1.8h-3.1v3.2h-1.8V93.6z"/>
	<path class="st17" d="M316.6,93.6h-3.1v-1.8h3.1v-3.2h1.8v3.2h3.1v1.8h-3.1v3.2h-1.8V93.6z"/>
	<path class="st20" d="M207.8,51.2H227c7.5,0,13.6,6.1,13.6,13.6V84c0,7.5-6.1,13.6-13.6,13.6h-19.2c-7.5,0-13.6-6.1-13.6-13.6V64.8
		C194.2,57.3,200.3,51.2,207.8,51.2z"/>
	<path class="st17" d="M203.5,79.3v-9.8c0-2.8,1.5-4.5,4.2-4.5s4.3,1.7,4.3,4.5v1.9h-2.7v-2.1c0-1.2-0.6-1.7-1.4-1.7
		s-1.4,0.5-1.4,1.7v10.2c0,1.2,0.6,1.7,1.4,1.7s1.4-0.5,1.4-1.7v-2.8h2.7v2.6c0,2.8-1.5,4.5-4.2,4.5S203.5,82.1,203.5,79.3z"/>
	<path class="st17" d="M213.2,79.2v-1h2.7v1.2c0,1.3,0.6,1.8,1.5,1.8s1.5-0.5,1.5-1.8c0-1.5-0.6-2.5-2.4-4.1
		c-2.4-2.1-3.2-3.6-3.2-5.7c0-2.9,1.5-4.5,4.3-4.5s4.2,1.7,4.2,4.6v0.8H219v-0.9c0-1.3-0.5-1.8-1.4-1.8s-1.4,0.5-1.4,1.7
		s0.6,2.3,2.5,3.9c2.4,2.1,3.1,3.6,3.1,5.8c0,3-1.5,4.6-4.3,4.6S213.2,82.1,213.2,79.2z"/>
	<path class="st17" d="M222.9,79.2v-1h2.7v1.2c0,1.3,0.6,1.8,1.5,1.8s1.5-0.5,1.5-1.8c0-1.5-0.6-2.5-2.4-4.1
		c-2.4-2.1-3.2-3.6-3.2-5.7c0-2.9,1.5-4.5,4.3-4.5c2.8,0,4.2,1.7,4.2,4.6v0.8h-2.7v-0.9c0-1.3-0.5-1.8-1.4-1.8s-1.4,0.5-1.4,1.7
		s0.6,2.3,2.5,3.9c2.4,2.1,3.2,3.6,3.2,5.8c0,3-1.5,4.6-4.3,4.6S222.9,82.1,222.9,79.2z"/>
	<circle class="st2" cx="364.6" cy="137.6" r="21.2"/>
	<g>
		<defs>
			<circle id="SVGID_9_" cx="364.6" cy="137.6" r="21.2"/>
		</defs>
		<clipPath id="SVGID_10_">
			<use xlink:href="#SVGID_9_"  style="overflow:visible;"/>
		</clipPath>
		<g class="st23">
			<circle class="st19" cx="364.6" cy="137.6" r="21.2"/>
		</g>
	</g>
	<circle class="st11" cx="364.6" cy="137.6" r="21.2"/>
	<path class="st17" d="M356.2,141.8v-8.4c0-2.4,1.2-3.8,3.6-3.8s3.6,1.4,3.6,3.8v1.7h-2.3v-1.8c0-1-0.5-1.5-1.2-1.5
		s-1.2,0.4-1.2,1.5v8.7c0,1,0.5,1.4,1.2,1.4s1.2-0.4,1.2-1.4v-2.4h2.3v2.2c0,2.4-1.2,3.8-3.6,3.8S356.2,144.2,356.2,141.8z"/>
	<path class="st17" d="M365.5,141h-1.1l0.2-1.7h1.1l0.4-4.1H365l0.2-1.8h1.1l0.4-3.6h1.9l-0.4,3.6h1.6l0.4-3.6h2l-0.4,3.6h1.1
		l-0.2,1.8h-1.1l-0.4,4.1h1.1l-0.2,1.7H371l-0.5,4.5h-1.9l0.5-4.5h-1.6l-0.5,4.5H365L365.5,141z M369.2,139.2l0.4-4.1H368l-0.4,4.1
		H369.2z"/>
</g>
<g id="freepik--Desk--inject-48">
	<polygon class="st7" points="114.2,381.5 110.5,381.5 109.5,234.2 114.2,234.2 	"/>
	<polygon class="st4" points="117.9,381.5 114.2,381.5 114.2,234.2 118.9,234.2 	"/>
	<rect x="71.7" y="225.2" class="st6" width="254.2" height="9"/>
	<rect x="322.2" y="225.2" class="st7" width="56.9" height="9"/>
	<rect x="84.8" y="234.2" class="st24" width="252.7" height="14.9"/>
	<rect x="337.5" y="234.2" class="st2" width="29.4" height="14.9"/>
	<g>
		<defs>
			<rect id="SVGID_11_" x="337.5" y="234.2" width="29.4" height="14.9"/>
		</defs>
		<clipPath id="SVGID_12_">
			<use xlink:href="#SVGID_11_"  style="overflow:visible;"/>
		</clipPath>
		<g class="st25">
			<rect x="337.5" y="234.2" class="st3" width="29.4" height="14.9"/>
		</g>
	</g>
	<rect x="337.5" y="234.2" class="st26" width="29.4" height="14.9"/>
	<polygon class="st7" points="337.5,381.5 333.8,381.5 332.8,234.2 337.5,234.2 	"/>
	<polygon class="st4" points="341.2,381.5 337.5,381.5 337.5,234.2 342.2,234.2 	"/>
	<polygon class="st7" points="84.8,381.5 81.1,381.5 80.1,234.2 84.8,234.2 	"/>
	<polygon class="st4" points="88.5,381.5 84.8,381.5 84.8,234.2 89.5,234.2 	"/>
	<polygon class="st7" points="366.9,381.5 363.2,381.5 362.2,234.2 366.9,234.2 	"/>
	<polygon class="st4" points="370.6,381.5 366.9,381.5 366.9,234.2 371.6,234.2 	"/>
	<path class="st7" d="M236,224.2h-29.8c-0.6,0-1.1-0.5-1.1-1.1v-2.5l32,1v1.5C237.1,223.7,236.6,224.2,236,224.2z"/>
	<path class="st4" d="M201.8,224.2h-59.9c-1,0-1.9-0.7-2.2-1.7l-12.9-41.7c-0.3-0.8,0.1-1.7,0.9-2.1c0.2-0.1,0.4-0.1,0.6-0.1h59.9
		c1,0,1.9,0.7,2.2,1.7l12.9,41.7c0.3,0.8-0.1,1.7-0.9,2.1C202.2,224.2,202,224.2,201.8,224.2z"/>
	<path class="st7" d="M206,222l-12.9-41.7c-0.3-1-1.2-1.6-2.2-1.7h-2.6c1,0,1.9,0.7,2.2,1.7l12.9,41.7c0.3,0.8-0.1,1.7-0.9,2.1
		c-0.2,0.1-0.4,0.1-0.6,0.1h2.7c0.9,0,1.6-0.7,1.6-1.6C206.1,222.4,206,222.2,206,222z"/>
	<path class="st8" d="M168.8,201.4c0.3,1.8-0.9,3.4-2.7,3.7c-0.2,0-0.4,0-0.6,0c-2.1-0.1-3.9-1.6-4.2-3.7c-0.3-1.7,0.9-3.4,2.7-3.7
		c0.2,0,0.4,0,0.6,0C166.7,197.8,168.5,199.3,168.8,201.4z"/>
</g>
</svg>
